<svg xmlns="http://www.w3.org/2000/svg" width="1280" height="760" viewBox="0 0 1280 760"><defs><marker id="a" markerWidth="10" markerHeight="10" refX="8" refY="3" orient="auto"><path d="M0 0L0 6L9 3z" fill="#37506b"/></marker></defs><rect width="1280" height="760" fill="#f7fbff"/><text x="640" y="70" text-anchor="middle" font-size="42" font-weight="800" fill="#20334a" font-family="Microsoft YaHei,Segoe UI,Arial">DINO 自监督训练流程</text><g font-family="Microsoft YaHei,Segoe UI,Arial" fill="#fff" stroke="#b9c7dd" stroke-width="3"><rect x="80" y="170" width="190" height="115" rx="22"/><rect x="330" y="170" width="200" height="115" rx="22"/><rect x="590" y="120" width="220" height="115" rx="22"/><rect x="590" y="300" width="220" height="115" rx="22"/><rect x="875" y="210" width="250" height="130" rx="24"/><rect x="470" y="535" width="340" height="110" rx="24"/></g><g font-family="Microsoft YaHei,Segoe UI,Arial" fill="#20334a"><text x="175" y="218" text-anchor="middle" font-size="26" font-weight="800">原始图片</text><text x="175" y="254" text-anchor="middle" font-size="19">不需要人工标签</text><text x="430" y="218" text-anchor="middle" font-size="26" font-weight="800">多视角增强</text><text x="430" y="254" text-anchor="middle" font-size="19">global / local crops</text><text x="700" y="168" text-anchor="middle" font-size="26" font-weight="800">Teacher</text><text x="700" y="204" text-anchor="middle" font-size="19">只看全局视图</text><text x="700" y="348" text-anchor="middle" font-size="26" font-weight="800">Student</text><text x="700" y="384" text-anchor="middle" font-size="19">学习全部视图</text><text x="1000" y="262" text-anchor="middle" font-size="26" font-weight="800">交叉熵一致性</text><text x="1000" y="300" text-anchor="middle" font-size="19">student 追 teacher</text><text x="640" y="580" text-anchor="middle" font-size="26" font-weight="800">EMA 更新 Teacher</text><text x="640" y="618" text-anchor="middle" font-size="19">稳定目标，避免坍缩</text></g><g stroke="#37506b" stroke-width="5" fill="none" marker-end="url(#a)"><path d="M270 228H330"/><path d="M530 205L590 175"/><path d="M530 250L590 355"/><path d="M810 177C850 177 855 245 875 258"/><path d="M810 360C850 360 855 310 875 292"/><path d="M1000 340C1000 590 825 590 810 590"/><path d="M470 590C360 590 355 360 590 360"/></g></svg>
